# xmcd
#
# Track frame offsets:
#	150
#	20448
#	40630
#	59239
#	78580
#	94474
#	109565
#	130063
#	151815
#	169241
#	188754
#	209699
#
# Disc length: 3036 seconds
#
# Revision: 1
# Processed by: cddbd v1.5.2PL0 Copyright (c) Steve Scherf et al.
# Submitted via: audiograbber 1.83.01
#
DISCID=a20bda0c
DTITLE=Tony Mc Loughlin - Cinérama
DYEAR=1900
DGENRE=Blues
TTITLE0=Face back to the sun
TTITLE1=Tears upon the water
TTITLE2=A woman like you
TTITLE3=Houstan
TTITLE4=All in vain
TTITLE5=Cinérama
TTITLE6=Iceman
TTITLE7=Billy Wilson
TTITLE8=Mexico
TTITLE9=I want to hold you
TTITLE10=Down on my knee
TTITLE11=Waters and the wild
EXTD=
EXTT0=
EXTT1=
EXTT2=
EXTT3=
EXTT4=
EXTT5=
EXTT6=
EXTT7=
EXTT8=
EXTT9=
EXTT10=
EXTT11=
PLAYORDER=
